<svg width="16" height="14" viewBox="0 0 16 14" fill="none" xmlns="http://www.w3.org/2000/svg">
<path d="M15.0361 1.28795C15.0198 1.52454 14.9287 1.74277 14.7875 1.92123C14.6582 2.02129 14.5285 2.12792 14.4084 2.23851C14.4051 2.23829 14.3985 2.23783 14.3983 2.24112C11.3654 4.83214 9.0623 8.16336 7.8286 11.961C7.82553 11.9575 7.82576 11.9542 7.81962 11.9472C7.5499 12.6946 6.76369 13.2083 5.87149 13.147C5.11098 13.0947 4.47749 12.6384 4.2087 12.0257C4.17597 11.9244 4.14279 11.8296 4.11006 11.7284C4.107 11.7248 4.10041 11.7244 4.10064 11.7211C3.25765 9.30919 1.97662 7.06194 0.337276 5.07066C0.303095 5.0386 0.272658 5.00019 0.248806 4.96223C0.0725464 4.73551 -0.0173394 4.45531 0.00277504 4.16287C0.05001 3.47611 0.690912 2.95895 1.43496 3.01012C1.71809 3.0296 1.96617 3.1259 2.17442 3.27228C2.17749 3.27579 2.17749 3.27579 2.18407 3.27624C2.26163 3.35091 2.34555 3.42931 2.42595 3.51077C2.42879 3.51757 2.43799 3.52811 2.44741 3.53536C3.75822 4.82064 5.04617 6.6788 5.99821 8.22663C7.68423 5.25905 9.93967 2.28441 12.8387 0.341164C12.9464 0.266036 13.0541 0.190909 13.1646 0.122579C13.3626 0.0338498 13.5875 -0.0134108 13.8311 0.00334591C14.5422 0.0522573 15.0813 0.630772 15.0361 1.28795Z" fill="#40BE46"/>
</svg>
